<?xml version="1.0" encoding="utf-8"?>
<!-- Generator: Adobe Illustrator 22.0.0, SVG Export Plug-In . SVG Version: 6.00 Build 0)  -->
<svg version="1.1" id="Layer_1" xmlns="http://www.w3.org/2000/svg" xmlns:xlink="http://www.w3.org/1999/xlink" x="0px" y="0px"
	 viewBox="0 0 128.5 165" style="enable-background:new 0 0 128.5 165;" xml:space="preserve">
<style type="text/css">
	.st0{fill:#ffffff;}
	.st1{fill:none;stroke:#ffffff;stroke-width:6;stroke-miterlimit:10;}
</style>
<g>
	<path d="M54,116.3C54,116.4,54,116.4,54,116.3"/>
	<path fill="white" d="M47.1,45.4c-9,7.7-12.9,20.7-9.6,31.2c0.6,2,2.4,7.7,8,11.8c3.2,2.4,8.3,3.8,8.3,3.8V97c0,0-3.6-1-5.9-2.1
		c-1.5-0.7-6.2-3.1-10.1-7.9c-6.3-7.8-6.3-16.9-6.3-19.7C31.6,57.1,36.6,50,38.1,48c10.1-13.8,26.6-14.6,27.9-14.6
		c3.8-0.1,14.7,0.2,23.9,8.3c9.1,8,13.2,20.6,10.8,31.9c-1.8,8.4-6.7,13.8-8.1,15.2C87.5,94,79.2,97,79.2,97v-4.3
		c0,0,8.3-3.6,12.6-10c5.3-7.9,4.5-16,4.2-18.7c-0.2-2-1.8-14.1-12.5-21.2c-7.3-4.9-14.7-4.7-17.3-4.7
		C63.4,38.2,54.7,38.8,47.1,45.4z"/>
	<rect x="64.2" y="69.1" class="st0" width="5.5" height="47.2"/>
	<path fill="white" d="M94.2,119.1H38.8v12.7h50v12.7h-15c0,4.8-4.1,8.4-8.5,8.1c-4-0.3-7.4-3.8-7.4-8.1H43.3v-3.6H86l0-5.5H38.8v13.6h14.3
		c2.3,5.3,6.3,8.8,12.1,8.6c5.5-0.1,10.8-3.5,13-8.6h16.1V119.1z M88.7,126.3H43.3v-3.6h45.4V126.3z"/>
	<path fill="white" d="M66.9,55c1.3,0.1,5.8,0.3,9.5,3.7c4.5,4.2,6.1,11.4,3.3,16.8c-1.4,2.6-4.5,4.8-4.5,4.8v5.2c0,0,4.6-2.5,6.8-5.7
		c3.9-5.6,4.5-13.6,0.8-20c-5-8.6-14.9-9.2-15.8-9.2c-1,0-11.1-0.3-16.5,8.1c-4.2,6.4-3.3,14.3,0,19.7c2.6,4.2,8.4,7.1,8.4,7.1v-5.3
		c0,0-3.4-2.2-4.9-4.7c-2.5-4.3-3-10.8,0.8-15.6C58.9,54.7,65.7,55,66.9,55z"/>
	<path d="M70.2,10.6L70.2,10.6c-0.4,0-0.8,0-1.1,0C69.4,10.6,69.8,10.6,70.2,10.6z"/>
	<path d="M77.5,116.3C77.5,116.3,77.5,116.4,77.5,116.3"/>
	<path d="M64.8,10.6c0.4,0,0.8,0,1.1,0C65.5,10.6,65.1,10.6,64.8,10.6L64.8,10.6z"/>
	<path fill="white" d="M68.3,10.3c-4.5-0.1-14.1,0.2-24.7,4.9c-6.7,3-11.3,6.5-13,8c-5.9,4.9-9.4,9.8-10.8,12c-1.2,1.8-6.3,9.9-8.1,22
		c-0.7,4.8-3.3,22,7,37.7c5.2,7.9,11.5,12.1,13.1,13.1c8.2,5.2,16.1,6.4,20.2,6.7c0-1.8,0-3.7,0-5.5c-2.3-0.2-5.4-0.7-8.9-1.9
		c-2.3-0.8-6.8-2.6-11.4-6.4c-0.9-0.7-5-4.2-8.4-9.7c-6.6-10.6-6.1-22.1-5.8-27c0.3-5.7,1.2-21.3,13.8-33.6
		c13.8-13.5,31.4-13,36-12.9c4.5,0.1,22.3,0.8,36.1,15.3c2.5,2.6,11.5,12.7,13.1,28.5c2.1,19.9-9.1,35.7-16,41.1
		c-4.5,3.5-9.4,5.3-9.4,5.3c-3.8,1.4-9.6,2.2-9.6,2.2l0,5.5c2.2-0.2,5.4-0.6,9-1.8c18.6-5.7,30.4-24.8,32-43.5
		c2.4-28.8-18.6-53.9-46.4-59c-1.5-0.3-3-0.5-4.5-0.6C70.7,10.4,69.5,10.4,68.3,10.3z"/>
	<path d="M117.4,81.4"/>
	<path d="M106.8,15"/>
	<path class="st1" d="M80,40.4"/>
</g>
<path d="M66.9,84"/>
<path d="M66.9,84"/>
</svg>
